{"title":"Tanu Weds Manu Returns 2015 Movies DVDScr x264 AAC +Sample â˜»rDXâ˜»","uid":11954870,"size":739400276,"categoryP":"video","categoryS":"movies","magnet":"?xt=urn:btih:e5ddb85f3909d5382fc30288cb0fb55185d387bf&amp;dn=Tanu+Weds+Manu+Returns+2015+Movies+DVDScr+x264+AAC+%2BSample+%E2%98%BBrDX%E2%98%BB&amp;tr=udp%3A%2F%2Ftracker.openbittorrent.com%3A80&amp;tr=udp%3A%2F%2Fopen.demonii.com%3A1337&amp;tr=udp%3A%2F%2Ftracker.coppersurfer.tk%3A6969&amp;tr=udp%3A%2F%2Fexodus.desync.com%3A6969","seeders":1,"leechers":0,"uploader":"basicssom","files":2,"time":1432358543,"description":"----------------------------------------------------------------\nTanu Weds Manu Returns 2015 Hindi Movies DVDScr x264 AAC with Sample ~ â˜»rDXâ˜»\n\nSCREEN SHOTS &amp; POSTER:\n &lt;a href=&quot;\nhttp://imagehosting4u.com/2015/5/TanuWedsManuReturnsds/11.html&quot; rel=&quot;nofollow&quot; target=&quot;_NEW&quot;&gt;\nhttp://imagehosting4u.com/2015/5/TanuWedsManuReturnsds/11.html&lt;/a&gt; &lt;a href=&quot;\nhttp://imagehosting4u.com/2015/5/TanuWedsManuReturnsds/1.html&quot; rel=&quot;nofollow&quot; target=&quot;_NEW&quot;&gt;\nhttp://imagehosting4u.com/2015/5/TanuWedsManuReturnsds/1.html&lt;/a&gt; &lt;a href=&quot;\nhttp://imagehosting4u.com/2015/5/TanuWedsManuReturnsds/2.html&quot; rel=&quot;nofollow&quot; target=&quot;_NEW&quot;&gt;\nhttp://imagehosting4u.com/2015/5/TanuWedsManuReturnsds/2.html&lt;/a&gt; &lt;a href=&quot;\nhttp://imagehosting4u.com/2015/5/TanuWedsManuReturnsds/3.html&quot; rel=&quot;nofollow&quot; target=&quot;_NEW&quot;&gt;\nhttp://imagehosting4u.com/2015/5/TanuWedsManuReturnsds/3.html&lt;/a&gt; &lt;a href=&quot;\nhttp://imagehosting4u.com/2015/5/TanuWedsManuReturnsds/4.html&quot; rel=&quot;nofollow&quot; target=&quot;_NEW&quot;&gt;\nhttp://imagehosting4u.com/2015/5/TanuWedsManuReturnsds/4.html&lt;/a&gt; &lt;a href=&quot;\nhttp://imagehosting4u.com/2015/5/TanuWedsManuReturnsds/5.html&quot; rel=&quot;nofollow&quot; target=&quot;_NEW&quot;&gt;\nhttp://imagehosting4u.com/2015/5/TanuWedsManuReturnsds/5.html&lt;/a&gt; &lt;a href=&quot;\nhttp://imagehosting4u.com/2015/5/TanuWedsManuReturnsds/6.html&quot; rel=&quot;nofollow&quot; target=&quot;_NEW&quot;&gt;\nhttp://imagehosting4u.com/2015/5/TanuWedsManuReturnsds/6.html&lt;/a&gt; &lt;a href=&quot;\nhttp://imagehosting4u.com/2015/5/TanuWedsManuReturnsds/7.html&quot; rel=&quot;nofollow&quot; target=&quot;_NEW&quot;&gt;\nhttp://imagehosting4u.com/2015/5/TanuWedsManuReturnsds/7.html&lt;/a&gt; &lt;a href=&quot;\nhttp://imagehosting4u.com/2015/5/TanuWedsManuReturnsds/8.html&quot; rel=&quot;nofollow&quot; target=&quot;_NEW&quot;&gt;\nhttp://imagehosting4u.com/2015/5/TanuWedsManuReturnsds/8.html&lt;/a&gt; &lt;a href=&quot;\nhttp://imagehosting4u.com/2015/5/TanuWedsManuReturnsds/9.html&quot; rel=&quot;nofollow&quot; target=&quot;_NEW&quot;&gt;\nhttp://imagehosting4u.com/2015/5/TanuWedsManuReturnsds/9.html&lt;/a&gt; &lt;a href=&quot;\nhttp://imagehosting4u.com/2015/5/TanuWedsManuReturnsds/10.html&quot; rel=&quot;nofollow&quot; target=&quot;_NEW&quot;&gt;\nhttp://imagehosting4u.com/2015/5/TanuWedsManuReturnsds/10.html&lt;/a&gt;\n\nFormat                                   : Matroska\nFormat version                           : Version 4 / Version 2\nFile size                                : 696 MiB\nDuration                                 : 1h 56mn\nOverall bit rate                         : 833 Kbps\nMovie name                               : Tanu Weds Manu Returns 2015 Hindi Movies DVDScr x264 AAC ~ rDX ~\n\nVideo\nID                                       : 1\nFormat                                   : AVC\nFormat/Info                              : Advanced Video Codec\nFormat profile                           : &lt;a class=&quot;__cf_email__&quot; href=&quot;/cdn-cgi/l/email-protection&quot; data-cfemail=&quot;ce86a7a9a68e82fae0ff&quot;&gt;[email&amp;#160;protected]&lt;/a&gt;&lt;script data-cfhash='f9e31' type=&quot;text/javascript&quot;&gt;\n/* &lt;![CDATA[ */!function(){try{var t=&quot;currentScript&quot;in document?document.currentScript:function(){for(var t=document.getElementsByTagName(&quot;script&quot;),e=t.length;e--;)if(t[e].getAttribute(&quot;data-cfhash&quot;))return t[e]}();if(t&amp;&amp;t.previousSibling){var e,r,n,i,c=t.previousSibling,a=c.getAttribute(&quot;data-cfemail&quot;);if(a){for(e=&quot;&quot;,r=parseInt(a.substr(0,2),16),n=2;a.length-n;n+=2)i=parseInt(a.substr(n,2),16)^r,e+=String.fromCharCode(i);e=document.createTextNode(e),c.parentNode.replaceChild(e,c)}t.parentNode.removeChild(t);}}catch(u){}}()/* ]]&gt; */&lt;/script&gt;\nFormat settings, CABAC                   : Yes\nFormat settings, ReFrames                : 4 frames\nCodec ID                                 : V_MPEG4/ISO/AVC\nDuration                                 : 1h 56mn\nBit rate                                 : 751 Kbps\nWidth                                    : 640 pixels\nHeight                                   : 272 pixels\nDisplay aspect ratio                     : 2.35:1\nFrame rate mode                          : Constant\nFrame rate                               : 25.000 fps\nColor space                              : YUV\nChroma subsampling                       : 4:2:0\nBit depth                                : 8 bits\nScan type                                : Progressive\nBits/(Pixel*Frame)                       : 0.173\nStream size                              : 615 MiB (88%)\nTitle                                    : ~ rDX ~\nWriting library                          : x264\nLanguage                                 : Hindi\nDefault                                  : Yes\nForced                                   : No\n\nAudio\nID                                       : 2\nFormat                                   : MPEG Audio\nFormat version                           : Version 1\nFormat profile                           : Layer 3\nMode                                     : Joint stereo\nMode extension                           : MS Stereo\nCodec ID                                 : A_MPEG/L3\nCodec ID/Hint                            : MP3\nDuration                                 : 1h 56mn\nBit rate mode                            : Constant\nBit rate                                 : 80.0 Kbps\nChannel(s)                               : 2 channels\nSampling rate                            : 32.0 KHz\nCompression mode                         : Lossy\nDelay relative to video                  : 2ms\nStream size                              : 66.9 MiB (10%)\nTitle                                    : ~ rDX ~\nWriting library                          : LAME3.99.5\nLanguage                                 : Hindi\nDefault                                  : Yes\nForced                                   : No","torrent":{"xt":"urn:btih:e5ddb85f3909d5382fc30288cb0fb55185d387bf","amp;dn":"Tanu+Weds+Manu+Returns+2015+Movies+DVDScr+x264+AAC+%2BSample+%E2%98%BBrDX%E2%98%BB","amp;tr":["udp%3A%2F%2Ftracker.openbittorrent.com%3A80","udp%3A%2F%2Fopen.demonii.com%3A1337","udp%3A%2F%2Ftracker.coppersurfer.tk%3A6969","udp%3A%2F%2Fexodus.desync.com%3A6969"],"infoHash":"e5ddb85f3909d5382fc30288cb0fb55185d387bf","infoHashBuffer":{"type":"Buffer","data":[229,221,184,95,57,9,213,56,47,195,2,136,203,15,181,81,133,211,135,191]},"announce":[],"urlList":[]}}